Format : AVI
 Format/Info : Audio Video Interleave
 File size : 1.39 GiB
 Duration : 2h 7mn
 Overall bit rate : 1 556 Kbps
 Writing application : VirtualDubMod 1.5.10.2 (build 2540/release)
 Writing library : VirtualDubMod build 2540/release

 Video
 ID : 0
 Format : MPEG-4 Visual
 Format profile : Advanced Simple@L5
 Format settings, BVOP : 2
 Format settings, QPel : No
 Format settings, GMC : No warppoints
 Format settings, Matrix : Default (H.263)
 Muxing mode : Packed bitstream
 Codec ID : XVID
 Codec ID/Hint : XviD
 Duration : 2h 7mn
 Bit rate : 1 418 Kbps
 Width : 642 pixels
 Height : 252 pixels
 Display aspect ratio : 2.548
 Frame rate : 25.000 fps
 Color space : YUV
 Chroma subsampling : 4:2:0
 Bit depth : 8 bits
 Scan type : Progressive
 Compression mode : Lossy
 Bits/(Pixel*Frame) : 0.351
 Stream size : 1.26 GiB (91%)
 Writing library : XviD 64

 Audio
 ID : 1
 Format : MPEG Audio
 Format version : Version 1
 Format profile : Layer 3
 Codec ID : 55
 Codec ID/Hint : MP3
 Duration : 2h 7mn
 Bit rate mode : Constant
 Bit rate : 128 Kbps
 Channel(s) : 2 channels
 Sampling rate : 48.0 KHz
 Compression mode : Lossy
 Stream size : 117 MiB (8%)
 Alignment : Split accross interleaves
 Interleave, duration : 40 ms (1.00 video frame)
 Interleave, preload duration : 500 ms








  http://www.imdb.com/title/tt1392170/






 Ratings: 8.1/10 from 13,331 users Metascore: 68/100 
 Reviews: 327 user | 162 critic | 43 from Metacritic.com

 Set in a future where the Capitol selects a boy and girl from the twelve districts to fight to the death on live television, Katniss Everdeen volunteers to take her younger sister's place for the latest match.

 Director:
 Gary Ross
 Writers:
 Gary Ross (screenplay), Suzanne Collins (screenplay), and 2 more credits ┬╗
 Stars:
 Jennifer Lawrence, Josh Hutcherson and Liam Hemsworth